<svg width="247" height="40" viewBox="0 0 247 40" fill="none" xmlns="http://www.w3.org/2000/svg">
  <path d="M126.391 1.18681L124.897 0.874492V0.312318H129.737V0.874492L128.375 1.18681V6.38379L132.964 1.2118L131.793 0.874492V0.312318H135.761V0.874492L134.363 1.16182L131.16 4.58483L135.271 11.206L136.371 11.4933V12.0555H131.889V11.4933L132.916 11.181L129.833 6.12144L128.375 7.42069V11.181L129.737 11.4933V12.0555H124.897V11.4933L126.391 11.181V1.18681Z" fill="white"/>
  <path d="M138.379 17.5773C137.757 17.5773 137.144 17.5023 136.538 17.3524V14.8164H137.1L137.494 16.0157C137.741 16.2072 138.084 16.303 138.522 16.303C138.936 16.303 139.319 16.1781 139.669 15.9282C140.02 15.6784 140.339 15.3078 140.626 14.8164C140.92 14.325 141.287 13.4463 141.725 12.1804L137.446 1.18681L136.299 0.874492V0.312318H141.51V0.874492L139.741 1.2118L142.777 9.41952L145.717 1.18681L143.96 0.874492V0.312318H148.143V0.874492L146.972 1.13684L142.586 12.7926C142.068 14.1668 141.618 15.1537 141.235 15.7533C140.853 16.353 140.43 16.8069 139.968 17.115C139.506 17.4232 138.976 17.5773 138.379 17.5773Z" fill="white"/>
  <path d="M148.896 10.9811C149.247 10.9811 149.57 10.4731 149.865 9.457C150.167 8.44092 150.49 6.78772 150.833 4.49739L151.335 1.18681L149.769 0.874492V0.312318H158.805V0.874492L157.442 1.18681V11.181L158.805 11.4933V12.0555H153.964V11.4933L155.458 11.181V1.34922H152.41L151.896 4.83469C151.538 7.24995 151.231 8.89066 150.976 9.75683C150.729 10.6147 150.422 11.256 150.056 11.6807C149.689 12.0971 149.235 12.3053 148.693 12.3053C148.43 12.3053 148.187 12.2595 147.964 12.1679C147.749 12.0846 147.586 11.993 147.474 11.8931L147.402 9.85677H147.94L148.311 10.5189C148.359 10.6105 148.434 10.7104 148.538 10.8187C148.649 10.927 148.769 10.9811 148.896 10.9811Z" fill="white"/>
  <path d="M164.506 11.0561C165.653 11.0561 166.462 10.8687 166.932 10.4939C167.41 10.1108 167.649 9.5153 167.649 8.70744C167.649 7.91623 167.414 7.35406 166.944 7.02092C166.474 6.67945 165.661 6.50871 164.506 6.50871H163.299V11.0561H164.506ZM164.793 0.312318V0.874492L163.299 1.18681V5.5093H164.721C166.458 5.5093 167.737 5.75499 168.558 6.24637C169.386 6.73775 169.801 7.53728 169.801 8.64497C169.801 9.88592 169.406 10.7646 168.617 11.2809C167.829 11.7973 166.518 12.0555 164.685 12.0555H159.821V11.4933L161.315 11.181V1.18681L159.821 0.874492V0.312318H164.793Z" fill="white"/>
  <path d="M179.948 0.312318V3.66037H179.291L178.777 1.58658C177.892 1.42834 177.099 1.34922 176.398 1.34922H175.944V11.181L177.546 11.4933V12.0555H172.227V11.4933L173.96 11.181V1.34922H173.518C172.817 1.34922 172.024 1.42834 171.139 1.58658L170.625 3.66037H169.968V0.312318H179.948Z" fill="white"/>
  <path d="M182.362 17.5773C181.741 17.5773 181.127 17.5023 180.522 17.3524V14.8164H181.083L181.478 16.0157C181.725 16.2072 182.068 16.303 182.506 16.303C182.92 16.303 183.303 16.1781 183.653 15.9282C184.004 15.6784 184.323 15.3078 184.609 14.8164C184.904 14.325 185.271 13.4463 185.709 12.1804L181.43 1.18681L180.283 0.874492V0.312318H185.494V0.874492L183.725 1.2118L186.761 9.41952L189.701 1.18681L187.944 0.874492V0.312318H192.127V0.874492L190.956 1.13684L186.57 12.7926C186.052 14.1668 185.601 15.1537 185.219 15.7533C184.836 16.353 184.414 16.8069 183.952 17.115C183.49 17.4232 182.96 17.5773 182.362 17.5773Z" fill="white"/>
  <path d="M194.04 1.18681L192.761 0.874492V0.312318H195.916L195.94 0.999419C196.275 0.699593 196.721 0.458067 197.279 0.27484C197.844 0.0916135 198.418 0 199 0C200.434 0 201.542 0.520531 202.322 1.56159C203.111 2.60265 203.506 4.09762 203.506 6.04648C203.506 8.03699 203.075 9.57776 202.215 10.6688C201.362 11.7598 200.127 12.3053 198.51 12.3053C197.609 12.3053 196.753 12.2137 195.94 12.0305C195.988 12.6302 196.012 13.1007 196.012 13.4422V16.6153L197.972 16.9152V17.5023H192.617V16.9152L194.04 16.6153V1.18681ZM201.354 6.04648C201.354 4.44741 201.103 3.2606 200.601 2.48605C200.107 1.70318 199.354 1.31174 198.342 1.31174C197.41 1.31174 196.633 1.44916 196.012 1.724V11.106C196.721 11.2476 197.498 11.3184 198.342 11.3184C200.35 11.3184 201.354 9.56111 201.354 6.04648Z" fill="white"/>
</svg>