<svg width="247" height="40" viewBox="0 0 247 40" fill="none" xmlns="http://www.w3.org/2000/svg">
  <path d="M13.8729 1.72382L8.85247 2.38293V32.195H15.2553C18.6993 32.195 21.2297 32.0259 22.8466 31.6879L24.3503 24.6152H25.9268L25.4902 34.3751H0V33.0315L4.17157 32.3471V2.38293L0 1.72382V0.380255H13.8729V1.72382Z" fill="white"/>
  <path d="M36.0404 17.3396C36.0404 22.7984 36.9136 26.7531 38.6598 29.2036C40.406 31.6541 43.1386 32.8794 46.8574 32.8794C50.5601 32.8794 53.2927 31.6541 55.0551 29.2036C56.8175 26.7531 57.6987 22.7984 57.6987 17.3396C57.6987 11.9147 56.8175 8.01071 55.0551 5.62778C53.3088 3.22795 50.5763 2.02803 46.8574 2.02803C43.1224 2.02803 40.3818 3.22795 38.6356 5.62778C36.9055 8.01071 36.0404 11.9147 36.0404 17.3396ZM30.9715 17.3396C30.9715 5.77988 36.2668 0 46.8574 0C52.0962 0 56.0575 1.47032 58.7416 4.41096C61.4256 7.3347 62.7676 11.6443 62.7676 17.3396C62.7676 23.1195 61.4094 27.4882 58.6931 30.4458C55.9767 33.4033 52.0315 34.8821 46.8574 34.8821C41.6996 34.8821 37.7624 33.4118 35.0461 30.4711C32.3297 27.5136 30.9715 23.1364 30.9715 17.3396Z" fill="white"/>
  <path d="M75.1126 19.1142V32.3471L80.5211 33.0315V34.3751H66.5754V33.0315L70.4317 32.3471V2.38293L66.2601 1.72382V0.380255H90.6589V8.51772H89.0582L88.2821 3.01669C86.4712 2.78009 83.8518 2.66179 80.424 2.66179H75.1126V16.8326H84.6926L85.4445 12.7766H86.9239V23.2209H85.4445L84.6926 19.1142H75.1126Z" fill="white"/>
  <path d="M100.118 34.3751V33.0315L105.284 32.3471V2.56039H104.047C99.9561 2.56039 97.1588 2.72939 95.6551 3.06739L95.0003 8.36562H93.3753V0.380255H121.994V8.36562H120.345L119.69 3.06739C119.205 2.94909 118.146 2.84769 116.513 2.76319C114.88 2.66179 113.093 2.61109 111.153 2.61109H109.965V32.3471L115.131 33.0315V34.3751H100.118Z" fill="white"/>
</svg>