<svg width="247" height="40" viewBox="0 0 247 40" fill="none" xmlns="http://www.w3.org/2000/svg">
  <path d="M165.778 23.5766L164.401 23.2637V22.7004H168.389L171.622 31.225L174.928 22.7004H178.784V23.2637L177.419 23.5766V33.5909L178.784 33.9038V34.4671H174.173V33.9038L175.431 33.5909V24.215L171.455 34.4671H170.808L166.928 24.2526V33.5909L168.053 33.9038V34.4671H164.401V33.9038L165.778 33.5909V23.5766Z" fill="white"/>
  <path d="M181.742 40C181.119 40 180.505 39.9249 179.898 39.7747V37.2336H180.461L180.856 38.4353C181.103 38.6272 181.447 38.7232 181.886 38.7232C182.301 38.7232 182.684 38.598 183.035 38.3476C183.387 38.0973 183.706 37.7259 183.994 37.2336C184.289 36.7412 184.656 35.8608 185.095 34.5923L180.808 23.5766L179.658 23.2637V22.7004H184.88V23.2637L183.107 23.6016L186.149 31.8259L189.095 23.5766L187.335 23.2637V22.7004H191.527V23.2637L190.353 23.5265L185.958 35.2057C185.439 36.5826 184.988 37.5715 184.604 38.1724C184.221 38.7733 183.798 39.2281 183.335 39.5368C182.872 39.8456 182.341 40 181.742 40Z" fill="white"/>
  <path d="M192.281 33.3906C192.632 33.3906 192.956 32.8815 193.251 31.8634C193.555 30.8453 193.878 29.1888 194.221 26.8938L194.724 23.5766L193.155 23.2637V22.7004H202.209V23.2637L200.844 23.5766V33.5909L202.209 33.9038V34.4671H197.359V33.9038L198.856 33.5909V23.7393H195.802L195.287 27.2318C194.928 29.6519 194.62 31.2959 194.365 32.1638C194.117 33.0234 193.81 33.666 193.443 34.0916C193.075 34.5088 192.62 34.7175 192.077 34.7175C191.814 34.7175 191.57 34.6716 191.347 34.5798C191.131 34.4963 190.968 34.4045 190.856 34.3044L190.784 32.264H191.323L191.694 32.9274C191.742 33.0192 191.818 33.1194 191.922 33.2278C192.034 33.3363 192.153 33.3906 192.281 33.3906Z" fill="white"/>
  <path d="M207.922 33.4657C209.072 33.4657 209.882 33.2779 210.353 32.9024C210.832 32.5185 211.072 31.9218 211.072 31.1123C211.072 30.3195 210.836 29.7562 210.365 29.4224C209.894 29.0803 209.08 28.9092 207.922 28.9092H206.712V33.4657H207.922ZM208.209 22.7004V23.2637L206.712 23.5766V27.9078H208.137C209.878 27.9078 211.159 28.154 211.982 28.6463C212.812 29.1387 213.227 29.9398 213.227 31.0497C213.227 32.2932 212.832 33.1736 212.042 33.691C211.251 34.2084 209.938 34.4671 208.102 34.4671H203.227V33.9038L204.724 33.5909V23.5766L203.227 23.2637V22.7004H208.209Z" fill="white"/>
  <path d="M223.395 22.7004V26.0551H222.736L222.221 23.9772C221.335 23.8186 220.541 23.7393 219.838 23.7393H219.383V33.5909L220.988 33.9038V34.4671H215.658V33.9038L217.395 33.5909V23.7393H216.952C216.249 23.7393 215.455 23.8186 214.569 23.9772L214.054 26.0551H213.395V22.7004H223.395Z" fill="white"/>
  <path d="M225.814 40C225.191 40 224.577 39.9249 223.97 39.7747V37.2336H224.533L224.928 38.4353C225.175 38.6272 225.519 38.7232 225.958 38.7232C226.373 38.7232 226.756 38.598 227.108 38.3476C227.459 38.0973 227.778 37.7259 228.066 37.2336C228.361 36.7412 228.728 35.8608 229.168 34.5923L224.88 23.5766L223.73 23.2637V22.7004H228.952V23.2637L227.179 23.6016L230.221 31.8259L233.168 23.5766L231.407 23.2637V22.7004H235.599V23.2637L234.425 23.5265L230.03 35.2057C229.511 36.5826 229.06 37.5715 228.677 38.1724C228.293 38.7733 227.87 39.2281 227.407 39.5368C226.944 39.8456 226.413 40 225.814 40Z" fill="white"/>
  <path d="M237.515 23.5766L236.233 23.2637V22.7004H239.395L239.419 23.3888C239.754 23.0884 240.202 22.8464 240.76 22.6628C241.327 22.4792 241.902 22.3874 242.485 22.3874C243.922 22.3874 245.032 22.909 245.814 23.9521C246.605 24.9953 247 26.4933 247 28.446C247 30.4405 246.569 31.9844 245.707 33.0776C244.852 34.1709 243.615 34.7175 241.994 34.7175C241.092 34.7175 240.233 34.6257 239.419 34.4421C239.467 35.0429 239.491 35.5144 239.491 35.8566V39.0361L241.455 39.3366V39.9249H236.09V39.3366L237.515 39.0361V23.5766ZM244.844 28.446C244.844 26.8438 244.593 25.6546 244.09 24.8785C243.595 24.094 242.84 23.7018 241.826 23.7018C240.892 23.7018 240.114 23.8395 239.491 24.1149V33.5158C240.202 33.6576 240.98 33.7286 241.826 33.7286C243.838 33.7286 244.844 31.9677 244.844 28.446Z" fill="white"/>
</svg>